<svg xmlns="http://www.w3.org/2000/svg" xmlns:xlink="http://www.w3.org/1999/xlink" width="500" zoomAndPan="magnify" viewBox="0 0 375 74.999997" height="100" preserveAspectRatio="xMidYMid meet" version="1.0"><defs><g/></defs><path stroke-linecap="butt" transform="matrix(0.837838, 0, 0, 0.837838, 0.0000075, -13.657239)" fill="none" stroke-linejoin="miter" d="M 8.928293 54.992993 L 4.918716 54.992993 C 4.107476 54.992993 3.697194 53.184021 3.697194 49.566077 C 3.697194 45.929484 4.107476 44.11585 4.918716 44.11585 L 8.928293 44.11585 L 8.928293 42.316203 C 8.928293 36.544277 10.140491 32.548687 12.564886 30.338758 C 14.998606 28.128828 18.392759 27.028526 22.742684 27.028526 C 27.111258 27.028526 30.957654 27.816454 34.281873 29.401636 C 34.724791 29.560154 34.943919 30.147603 34.943919 31.159322 C 34.943919 32.171041 34.477689 33.793521 33.54523 36.031424 C 32.61277 38.250678 31.820179 39.528148 31.167457 39.863834 C 29.321187 38.716908 27.409645 38.148108 25.437492 38.148108 C 23.325471 38.148108 22.267129 39.565447 22.267129 42.400124 L 22.267129 44.11585 L 29.050774 44.11585 C 30.025194 44.11585 30.510073 45.85955 30.510073 49.346949 C 30.510073 53.165372 29.885325 55.076914 28.635829 55.076914 L 23.40473 55.076914 L 23.40473 84.020464 C 23.40473 84.673186 20.989659 84.999547 16.154856 84.999547 C 11.338701 84.999547 8.928293 84.673186 8.928293 84.020464 Z M 41.550396 55.314691 C 40.030487 52.587247 39.270532 50.36333 39.270532 48.647604 C 39.270532 46.931878 39.7321 45.826914 40.650573 45.33271 C 43.764988 43.975981 48.030991 43.295285 53.448582 43.295285 C 58.875498 43.295285 62.707908 44.568093 64.945811 47.109046 C 67.183714 49.636012 68.298004 53.3845 68.298004 58.349848 L 68.298004 71.264415 L 71.072071 71.264415 C 72.004531 71.264415 72.722525 71.809904 73.230716 72.900882 C 73.748231 73.99186 74.009319 75.488457 74.009319 77.395338 C 74.009319 79.297555 73.529103 81.181124 72.573331 83.041381 C 71.626885 84.892314 70.335428 85.820111 68.698961 85.820111 C 65.757051 85.820111 63.388603 85.02752 61.593618 83.442339 C 60.768391 82.789617 60.138981 81.997026 59.714712 81.069229 C 57.201733 84.23493 53.299389 85.820111 48.017005 85.820111 C 44.035402 85.820111 40.683209 84.402772 37.955764 81.568095 C 35.228319 78.733417 33.862266 75.376562 33.862266 71.506854 C 33.862266 62.629838 39.177286 58.19133 49.81199 58.19133 L 54.306445 58.19133 L 54.306445 57.370765 C 54.306445 55.948764 54.07333 55.034953 53.607101 54.633996 C 53.154858 54.223713 52.082529 54.018572 50.390115 54.018572 C 48.315392 54.018572 45.368819 54.447504 41.550396 55.314691 Z M 48.096264 70.364591 C 48.096264 71.562802 48.422625 72.476613 49.075346 73.101361 C 49.728068 73.726109 50.557957 74.038483 51.569676 74.038483 C 52.581395 74.038483 53.495205 73.632863 54.306445 72.821623 L 54.306445 66.513533 L 52.031244 66.513533 C 49.40637 66.513533 48.096264 67.800327 48.096264 70.364591 Z M 75.496593 44.353627 C 75.324088 43.929358 77.86504 43.714892 83.124113 43.714892 C 88.392511 43.714892 91.026709 43.850099 91.026709 44.11585 L 96.915193 71.921799 L 101.330389 44.512145 C 101.488907 44.036591 104.183716 43.794151 109.414815 43.794151 C 114.711186 43.794151 117.275451 44.008617 117.098283 44.432886 L 105.582406 84.421422 C 105.195435 84.966911 101.945813 85.237324 95.838202 85.237324 C 89.744577 85.237324 86.476306 84.831704 86.03805 84.020464 Z M 75.496593 44.353627 " stroke="#000000" stroke-width="2.759886" stroke-opacity="1" stroke-miterlimit="4"/><path stroke-linecap="butt" transform="matrix(0.837838, 0, 0, 0.837838, 0.0000075, -13.657239)" fill="none" stroke-linejoin="miter" d="M 138.852569 99.872279 C 138.852569 100.25925 136.526082 100.450404 131.868445 100.450404 C 127.210809 100.450404 124.87966 100.25925 124.87966 99.872279 L 124.87966 57.771723 L 122.086943 57.771723 C 120.781499 57.771723 119.881676 56.573512 119.392134 54.17709 C 119.228954 53.403149 119.149695 52.419404 119.149695 51.221193 C 119.149695 50.022982 119.532003 48.605644 120.287296 46.969177 C 121.378273 44.572755 123.121973 43.374545 125.518395 43.374545 C 127.103576 43.374545 128.558213 43.747528 129.891631 44.493496 C 131.234373 45.225477 132.166832 45.906173 132.684348 46.530921 C 133.206525 47.155669 133.462951 47.52399 133.462951 47.626561 C 137.113531 44.791883 141.057836 43.374545 145.30519 43.374545 C 149.561869 43.374545 153.217111 45.024998 156.261592 48.325906 C 159.324722 51.626813 160.853956 56.727368 160.853956 63.618245 C 160.853956 70.513785 159.324722 75.856779 156.261592 79.65189 C 153.217111 83.428352 149.347403 85.321245 144.661793 85.321245 C 142.535785 85.321245 140.596268 85.214012 138.852569 84.999547 Z M 142.209424 57.687801 C 141.276964 57.687801 140.37714 57.990851 139.514615 58.587625 L 139.514615 73.064062 C 140.433088 73.166633 141.179056 73.22258 141.747856 73.22258 C 142.321319 73.22258 142.773562 73.22258 143.109247 73.22258 C 145.342488 73.008115 146.46144 70.145463 146.46144 64.639289 C 146.46144 60.004964 145.044101 57.687801 142.209424 57.687801 Z M 170.201865 80.188054 C 166.793724 76.420917 165.091985 71.21313 165.091985 64.555367 C 165.091985 57.902267 166.793724 52.699142 170.201865 48.945991 C 173.605343 45.178854 178.197707 43.295285 183.974295 43.295285 C 189.76487 43.295285 194.347909 45.178854 197.728076 48.945991 C 201.108242 52.699142 202.800657 57.902267 202.800657 64.555367 C 202.800657 71.21313 201.108242 76.420917 197.728076 80.188054 C 194.347909 83.941205 189.76487 85.820111 183.974295 85.820111 C 178.197707 85.820111 173.605343 83.941205 170.201865 80.188054 Z M 184.016255 56.951158 C 180.939138 56.951158 179.405242 59.459475 179.405242 64.476108 C 179.405242 69.497404 180.939138 72.00572 184.016255 72.00572 C 187.102697 72.00572 188.645918 69.497404 188.645918 64.476108 C 188.645918 59.459475 187.102697 56.951158 184.016255 56.951158 Z M 223.487276 84.342163 C 223.487276 84.831704 220.703883 85.078806 215.141761 85.078806 C 210.773187 85.02752 208.591231 84.808392 208.591231 84.421422 L 208.591231 28.744251 C 208.591231 27.933011 211.239417 27.527391 216.540451 27.527391 C 221.170113 27.68591 223.487276 27.951661 223.487276 28.324645 Z M 245.72644 84.342163 C 245.72644 84.831704 242.943048 85.078806 237.380925 85.078806 C 233.017014 85.02752 230.835058 84.808392 230.835058 84.421422 L 230.835058 28.744251 C 230.835058 27.933011 233.483244 27.527391 238.779615 27.527391 C 243.409278 27.68591 245.72644 27.951661 245.72644 28.324645 Z M 254.789948 70.285332 C 259.209808 72.947505 262.701869 74.280922 265.270796 74.280922 C 266.907263 74.280922 267.727827 73.707459 267.727827 72.560534 C 267.727827 71.749294 266.310488 70.690952 263.475811 69.390171 C 256.65953 66.606779 253.25139 62.056375 253.25139 55.734298 C 253.25139 51.70141 254.724676 48.61963 257.666587 46.48896 C 260.603835 44.362952 264.133195 43.295285 268.245342 43.295285 C 272.35749 43.295285 275.844889 43.733542 278.70754 44.614716 C 281.565529 45.477241 282.996855 46.624167 282.996855 48.046168 C 282.996855 49.244378 282.414068 50.82956 281.243831 52.79705 C 280.068932 54.755215 279.271679 55.813557 278.847409 55.972075 C 276.488286 54.671294 273.956658 54.018572 271.238538 54.018572 C 269.760589 54.018572 269.023946 54.531425 269.023946 55.552469 C 269.023946 56.219177 269.308346 56.783315 269.881809 57.249545 C 270.455272 57.701788 271.499627 58.275251 273.014874 58.969933 C 274.54877 59.645967 275.816915 60.256728 276.828634 60.802217 C 277.840353 61.352368 278.973291 62.10766 280.222787 63.082081 C 282.842999 65.156804 284.157767 67.856275 284.157767 71.185156 C 284.157767 75.53508 282.712455 79.06444 279.826492 81.763911 C 276.935867 84.468045 272.571955 85.820111 266.730095 85.820111 C 262.869712 85.820111 259.354339 85.167389 256.188638 83.861946 C 253.018275 82.542515 251.437756 80.742868 251.437756 78.453679 C 251.437756 76.93377 251.801415 75.329939 252.533396 73.642187 C 253.279364 71.949773 254.029994 70.830821 254.789948 70.285332 Z M 254.789948 70.285332 " stroke="#000000" stroke-width="2.759886" stroke-opacity="1" stroke-miterlimit="4"/><path stroke-linecap="butt" transform="matrix(0.837838, 0, 0, 0.837838, 0.0000075, -13.657239)" fill="none" stroke-linejoin="miter" d="M 303.277854 85.237324 C 303.277854 85.624295 300.699603 85.820111 295.552425 85.820111 C 290.400585 85.820111 287.822334 85.652268 287.822334 85.321245 L 287.822334 70.607031 C 287.822334 70.112827 290.400585 69.865725 295.552425 69.865725 C 300.699603 69.865725 303.277854 70.005594 303.277854 70.285332 Z M 322.001645 64.718548 C 322.001645 70.066204 324.015758 72.742364 328.048647 72.742364 C 330.673521 72.742364 332.855477 72.224848 334.599176 71.185156 C 335.410416 71.185156 336.072463 72.588508 336.59464 75.399874 C 337.112155 78.206578 337.373244 80.113458 337.373244 81.125176 C 337.373244 82.127571 337.238037 82.789617 336.972286 83.125303 C 334.086323 84.920288 330.132694 85.820111 325.116061 85.820111 C 320.099428 85.820111 315.8241 83.955192 312.299402 80.230015 C 308.784029 76.490852 307.026342 71.390297 307.026342 64.937676 C 307.026342 58.466405 308.756055 53.244631 312.220143 49.26769 C 315.693555 45.286087 320.304569 43.295285 326.053183 43.295285 C 331.801797 43.295285 335.797387 44.689313 338.030628 47.468043 C 338.524832 48.069479 338.771934 48.950654 338.771934 50.125553 C 338.771934 51.29579 338.548143 52.727116 338.109887 54.414868 C 337.126142 57.902267 335.84401 59.921042 334.258828 60.466531 C 334.044363 60.517817 333.731989 60.54579 333.321706 60.54579 C 332.920749 60.54579 332.421883 60.219429 331.820446 59.566708 C 329.694438 57.436037 327.983375 56.373033 326.691918 56.373033 C 325.414448 56.373033 324.309483 57.030417 323.377023 58.349848 C 322.458551 59.655291 322.001645 61.776637 322.001645 64.718548 Z M 346.805074 80.188054 C 343.401596 76.420917 341.695195 71.21313 341.695195 64.555367 C 341.695195 57.902267 343.401596 52.699142 346.805074 48.945991 C 350.213214 45.178854 354.805579 43.295285 360.582166 43.295285 C 366.372741 43.295285 370.955781 45.178854 374.335947 48.945991 C 377.716114 52.699142 379.408528 57.902267 379.408528 64.555367 C 379.408528 71.21313 377.716114 76.420917 374.335947 80.188054 C 370.955781 83.941205 366.372741 85.820111 360.582166 85.820111 C 354.805579 85.820111 350.213214 83.941205 346.805074 80.188054 Z M 360.624127 56.951158 C 357.54701 56.951158 356.008452 59.459475 356.008452 64.476108 C 356.008452 69.497404 357.54701 72.00572 360.624127 72.00572 C 363.710569 72.00572 365.25379 69.497404 365.25379 64.476108 C 365.25379 59.459475 363.710569 56.951158 360.624127 56.951158 Z M 422.25039 84.598589 C 422.25039 84.971573 419.914579 85.158065 415.242956 85.158065 C 410.585319 85.158065 408.258832 84.915625 408.258832 84.421422 L 408.258832 60.625049 C 408.258832 57.911592 407.359009 56.5502 405.564024 56.5502 C 404.645551 56.5502 403.419366 57.151637 401.890132 58.349848 L 401.890132 84.500681 C 401.890132 85.04617 399.554321 85.321245 394.882697 85.321245 C 390.225061 85.321245 387.893912 85.018196 387.893912 84.421422 L 387.893912 57.687801 L 385.856487 57.687801 C 384.061502 57.687801 383.161679 55.808895 383.161679 52.041758 C 383.161679 50.349343 383.48804 48.633617 384.140761 46.889918 C 385.021936 44.493496 386.439275 43.295285 388.392778 43.295285 C 390.36493 43.295285 392.257823 43.817463 394.085444 44.852493 C 395.908403 45.892186 397.013368 46.871268 397.395676 47.789741 C 400.775843 44.791883 404.524331 43.295285 408.636478 43.295285 C 412.748626 43.295285 416.054196 44.58208 418.55785 47.151006 C 421.513747 44.58208 425.061756 43.295285 429.197215 43.295285 C 438.195452 43.295285 442.69457 48.773486 442.69457 59.725226 L 442.69457 84.598589 C 442.69457 84.971573 440.358758 85.158065 435.687135 85.158065 C 431.029499 85.158065 428.698349 84.915625 428.698349 84.421422 L 428.698349 60.625049 C 428.698349 57.911592 427.803188 56.5502 426.003541 56.5502 C 425.019796 56.5502 423.7703 57.151637 422.25039 58.349848 Z M 422.25039 84.598589 " stroke="#000000" stroke-width="2.759886" stroke-opacity="1" stroke-miterlimit="4"/><g fill="#ffde59" fill-opacity="1"><g transform="translate(1.728048, 57.558974)"><g><path d="M 5.75 -25.140625 L 2.390625 -25.140625 C 1.710938 -25.140625 1.375 -26.65625 1.375 -29.6875 C 1.375 -32.726562 1.710938 -34.25 2.390625 -34.25 L 5.75 -34.25 L 5.75 -35.765625 C 5.75 -40.609375 6.765625 -43.953125 8.796875 -45.796875 C 10.835938 -47.648438 13.679688 -48.578125 17.328125 -48.578125 C 20.984375 -48.578125 24.207031 -47.914062 27 -46.59375 C 27.363281 -46.457031 27.546875 -45.960938 27.546875 -45.109375 C 27.546875 -44.265625 27.15625 -42.90625 26.375 -41.03125 C 25.601562 -39.164062 24.941406 -38.097656 24.390625 -37.828125 C 22.835938 -38.785156 21.238281 -39.265625 19.59375 -39.265625 C 17.8125 -39.265625 16.921875 -38.078125 16.921875 -35.703125 L 16.921875 -34.25 L 22.609375 -34.25 C 23.429688 -34.25 23.84375 -32.789062 23.84375 -29.875 C 23.84375 -26.675781 23.316406 -25.078125 22.265625 -25.078125 L 17.875 -25.078125 L 17.875 -0.828125 C 17.875 -0.273438 15.851562 0 11.8125 0 C 7.769531 0 5.75 -0.273438 5.75 -0.828125 Z M 5.75 -25.140625 "/></g></g></g><g fill="#ffde59" fill-opacity="1"><g transform="translate(27.417935, 57.558974)"><g><path d="M 7.40625 -24.875 C 6.125 -27.15625 5.484375 -29.015625 5.484375 -30.453125 C 5.484375 -31.890625 5.867188 -32.816406 6.640625 -33.234375 C 9.242188 -34.367188 12.816406 -34.9375 17.359375 -34.9375 C 21.910156 -34.9375 25.117188 -33.875 26.984375 -31.75 C 28.859375 -29.632812 29.796875 -26.5 29.796875 -22.34375 L 29.796875 -11.515625 L 32.140625 -11.515625 C 32.910156 -11.515625 33.507812 -11.054688 33.9375 -10.140625 C 34.375 -9.222656 34.59375 -7.960938 34.59375 -6.359375 C 34.59375 -4.765625 34.191406 -3.191406 33.390625 -1.640625 C 32.597656 -0.0859375 31.515625 0.6875 30.140625 0.6875 C 27.679688 0.6875 25.695312 0.0234375 24.1875 -1.296875 C 23.5 -1.847656 22.972656 -2.507812 22.609375 -3.28125 C 20.503906 -0.632812 17.238281 0.6875 12.8125 0.6875 C 9.476562 0.6875 6.664062 -0.5 4.375 -2.875 C 2.09375 -5.25 0.953125 -8.0625 0.953125 -11.3125 C 0.953125 -18.75 5.40625 -22.46875 14.3125 -22.46875 L 18.09375 -22.46875 L 18.09375 -23.15625 C 18.09375 -24.34375 17.894531 -25.109375 17.5 -25.453125 C 17.113281 -25.796875 16.210938 -25.96875 14.796875 -25.96875 C 13.066406 -25.96875 10.601562 -25.601562 7.40625 -24.875 Z M 12.875 -12.265625 C 12.875 -11.253906 13.148438 -10.488281 13.703125 -9.96875 C 14.253906 -9.445312 14.953125 -9.1875 15.796875 -9.1875 C 16.640625 -9.1875 17.40625 -9.523438 18.09375 -10.203125 L 18.09375 -15.484375 L 16.171875 -15.484375 C 13.972656 -15.484375 12.875 -14.410156 12.875 -12.265625 Z M 12.875 -12.265625 "/></g></g></g><g fill="#ffde59" fill-opacity="1"><g transform="translate(62.83572, 57.558974)"><g><path d="M 0.40625 -34.046875 C 0.269531 -34.410156 2.40625 -34.59375 6.8125 -34.59375 C 11.21875 -34.59375 13.421875 -34.476562 13.421875 -34.25 L 18.359375 -10.96875 L 22.0625 -33.921875 C 22.195312 -34.328125 24.457031 -34.53125 28.84375 -34.53125 C 33.269531 -34.53125 35.414062 -34.347656 35.28125 -33.984375 L 25.625 -0.484375 C 25.300781 -0.0234375 22.582031 0.203125 17.46875 0.203125 C 12.351562 0.203125 9.613281 -0.140625 9.25 -0.828125 Z M 0.40625 -34.046875 "/></g></g></g><g fill="#ff914d" fill-opacity="1"><g transform="translate(98.524496, 57.558974)"><g><path d="M 17.8125 12.46875 C 17.8125 12.789062 15.859375 12.953125 11.953125 12.953125 C 8.046875 12.953125 6.09375 12.789062 6.09375 12.46875 L 6.09375 -22.8125 L 3.765625 -22.8125 C 2.671875 -22.8125 1.914062 -23.816406 1.5 -25.828125 C 1.363281 -26.472656 1.296875 -27.296875 1.296875 -28.296875 C 1.296875 -29.296875 1.617188 -30.484375 2.265625 -31.859375 C 3.171875 -33.867188 4.628906 -34.875 6.640625 -34.875 C 7.972656 -34.875 9.195312 -34.566406 10.3125 -33.953125 C 11.425781 -33.335938 12.203125 -32.765625 12.640625 -32.234375 C 13.078125 -31.710938 13.296875 -31.40625 13.296875 -31.3125 C 16.347656 -33.6875 19.65625 -34.875 23.21875 -34.875 C 26.789062 -34.875 29.851562 -33.488281 32.40625 -30.71875 C 34.96875 -27.957031 36.25 -23.6875 36.25 -17.90625 C 36.25 -12.132812 34.96875 -7.660156 32.40625 -4.484375 C 29.851562 -1.304688 26.609375 0.28125 22.671875 0.28125 C 20.890625 0.28125 19.269531 0.1875 17.8125 0 Z M 20.625 -22.890625 C 19.84375 -22.890625 19.085938 -22.632812 18.359375 -22.125 L 18.359375 -10 C 19.140625 -9.90625 19.769531 -9.859375 20.25 -9.859375 C 20.726562 -9.859375 21.101562 -9.859375 21.375 -9.859375 C 23.25 -10.046875 24.1875 -12.445312 24.1875 -17.0625 C 24.1875 -20.945312 23 -22.890625 20.625 -22.890625 Z M 20.625 -22.890625 "/></g></g></g><g fill="#ff914d" fill-opacity="1"><g transform="translate(136.545528, 57.558974)"><g><path d="M 6.0625 -4.03125 C 3.207031 -7.1875 1.78125 -11.550781 1.78125 -17.125 C 1.78125 -22.695312 3.207031 -27.054688 6.0625 -30.203125 C 8.914062 -33.359375 12.765625 -34.9375 17.609375 -34.9375 C 22.453125 -34.9375 26.285156 -33.359375 29.109375 -30.203125 C 31.941406 -27.054688 33.359375 -22.695312 33.359375 -17.125 C 33.359375 -11.550781 31.941406 -7.1875 29.109375 -4.03125 C 26.285156 -0.882812 22.453125 0.6875 17.609375 0.6875 C 12.765625 0.6875 8.914062 -0.882812 6.0625 -4.03125 Z M 17.640625 -23.5 C 15.054688 -23.5 13.765625 -21.394531 13.765625 -17.1875 C 13.765625 -12.988281 15.054688 -10.890625 17.640625 -10.890625 C 20.222656 -10.890625 21.515625 -12.988281 21.515625 -17.1875 C 21.515625 -21.394531 20.222656 -23.5 17.640625 -23.5 Z M 17.640625 -23.5 "/></g></g></g><g fill="#ff914d" fill-opacity="1"><g transform="translate(171.689293, 57.558974)"><g><path d="M 15.546875 -0.546875 C 15.546875 -0.140625 13.21875 0.0625 8.5625 0.0625 C 4.90625 0.0195312 3.078125 -0.160156 3.078125 -0.484375 L 3.078125 -47.140625 C 3.078125 -47.828125 5.296875 -48.171875 9.734375 -48.171875 C 13.609375 -48.023438 15.546875 -47.796875 15.546875 -47.484375 Z M 15.546875 -0.546875 "/></g></g></g><g fill="#ff914d" fill-opacity="1"><g transform="translate(190.323027, 57.558974)"><g><path d="M 15.546875 -0.546875 C 15.546875 -0.140625 13.21875 0.0625 8.5625 0.0625 C 4.90625 0.0195312 3.078125 -0.160156 3.078125 -0.484375 L 3.078125 -47.140625 C 3.078125 -47.828125 5.296875 -48.171875 9.734375 -48.171875 C 13.609375 -48.023438 15.546875 -47.796875 15.546875 -47.484375 Z M 15.546875 -0.546875 "/></g></g></g><g fill="#ff914d" fill-opacity="1"><g transform="translate(208.956762, 57.558974)"><g><path d="M 4.515625 -12.328125 C 8.222656 -10.085938 11.148438 -8.96875 13.296875 -8.96875 C 14.660156 -8.96875 15.34375 -9.453125 15.34375 -10.421875 C 15.34375 -11.097656 14.15625 -11.988281 11.78125 -13.09375 C 6.070312 -15.414062 3.21875 -19.226562 3.21875 -24.53125 C 3.21875 -27.90625 4.453125 -30.484375 6.921875 -32.265625 C 9.390625 -34.046875 12.347656 -34.9375 15.796875 -34.9375 C 19.242188 -34.9375 22.164062 -34.570312 24.5625 -33.84375 C 26.957031 -33.113281 28.15625 -32.15625 28.15625 -30.96875 C 28.15625 -29.96875 27.664062 -28.644531 26.6875 -27 C 25.707031 -25.351562 25.035156 -24.460938 24.671875 -24.328125 C 22.703125 -25.421875 20.578125 -25.96875 18.296875 -25.96875 C 17.054688 -25.96875 16.4375 -25.535156 16.4375 -24.671875 C 16.4375 -24.117188 16.675781 -23.644531 17.15625 -23.25 C 17.632812 -22.863281 18.515625 -22.382812 19.796875 -21.8125 C 21.078125 -21.25 22.140625 -20.738281 22.984375 -20.28125 C 23.828125 -19.820312 24.773438 -19.179688 25.828125 -18.359375 C 28.023438 -16.628906 29.125 -14.367188 29.125 -11.578125 C 29.125 -7.921875 27.910156 -4.960938 25.484375 -2.703125 C 23.066406 -0.441406 19.414062 0.6875 14.53125 0.6875 C 11.28125 0.6875 8.332031 0.140625 5.6875 -0.953125 C 3.039062 -2.054688 1.71875 -3.566406 1.71875 -5.484375 C 1.71875 -6.765625 2.023438 -8.109375 2.640625 -9.515625 C 3.253906 -10.929688 3.878906 -11.867188 4.515625 -12.328125 Z M 4.515625 -12.328125 "/></g></g></g><g fill="#ff5757" fill-opacity="1"><g transform="translate(239.778712, 57.558974)"><g><path d="M 14.3125 0.203125 C 14.3125 0.523438 12.15625 0.6875 7.84375 0.6875 C 3.53125 0.6875 1.375 0.550781 1.375 0.28125 L 1.375 -12.0625 C 1.375 -12.46875 3.53125 -12.671875 7.84375 -12.671875 C 12.15625 -12.671875 14.3125 -12.554688 14.3125 -12.328125 Z M 14.3125 0.203125 "/></g></g></g><g fill="#ff5757" fill-opacity="1"><g transform="translate(255.466667, 57.558974)"><g><path d="M 14.3125 -16.984375 C 14.3125 -12.515625 16.003906 -10.28125 19.390625 -10.28125 C 21.578125 -10.28125 23.40625 -10.710938 24.875 -11.578125 C 25.5625 -11.578125 26.117188 -10.398438 26.546875 -8.046875 C 26.984375 -5.691406 27.203125 -4.09375 27.203125 -3.25 C 27.203125 -2.40625 27.085938 -1.847656 26.859375 -1.578125 C 24.441406 -0.0664062 21.128906 0.6875 16.921875 0.6875 C 12.722656 0.6875 9.148438 -0.875 6.203125 -4 C 3.253906 -7.132812 1.78125 -11.40625 1.78125 -16.8125 C 1.78125 -22.226562 3.226562 -26.601562 6.125 -29.9375 C 9.03125 -33.269531 12.890625 -34.9375 17.703125 -34.9375 C 22.523438 -34.9375 25.875 -33.773438 27.75 -31.453125 C 28.15625 -30.941406 28.359375 -30.195312 28.359375 -29.21875 C 28.359375 -28.238281 28.175781 -27.039062 27.8125 -25.625 C 26.988281 -22.695312 25.914062 -21.003906 24.59375 -20.546875 C 24.414062 -20.503906 24.15625 -20.484375 23.8125 -20.484375 C 23.46875 -20.484375 23.046875 -20.757812 22.546875 -21.3125 C 20.765625 -23.09375 19.335938 -23.984375 18.265625 -23.984375 C 17.191406 -23.984375 16.265625 -23.429688 15.484375 -22.328125 C 14.703125 -21.234375 14.3125 -19.453125 14.3125 -16.984375 Z M 14.3125 -16.984375 "/></g></g></g><g fill="#ff5757" fill-opacity="1"><g transform="translate(284.513364, 57.558974)"><g><path d="M 6.0625 -4.03125 C 3.207031 -7.1875 1.78125 -11.550781 1.78125 -17.125 C 1.78125 -22.695312 3.207031 -27.054688 6.0625 -30.203125 C 8.914062 -33.359375 12.765625 -34.9375 17.609375 -34.9375 C 22.453125 -34.9375 26.285156 -33.359375 29.109375 -30.203125 C 31.941406 -27.054688 33.359375 -22.695312 33.359375 -17.125 C 33.359375 -11.550781 31.941406 -7.1875 29.109375 -4.03125 C 26.285156 -0.882812 22.453125 0.6875 17.609375 0.6875 C 12.765625 0.6875 8.914062 -0.882812 6.0625 -4.03125 Z M 17.640625 -23.5 C 15.054688 -23.5 13.765625 -21.394531 13.765625 -17.1875 C 13.765625 -12.988281 15.054688 -10.890625 17.640625 -10.890625 C 20.222656 -10.890625 21.515625 -12.988281 21.515625 -17.1875 C 21.515625 -21.394531 20.222656 -23.5 17.640625 -23.5 Z M 17.640625 -23.5 "/></g></g></g><g fill="#ff5757" fill-opacity="1"><g transform="translate(319.657129, 57.558974)"><g><path d="M 34.125 -0.34375 C 34.125 -0.0195312 32.171875 0.140625 28.265625 0.140625 C 24.359375 0.140625 22.40625 -0.0664062 22.40625 -0.484375 L 22.40625 -20.421875 C 22.40625 -22.703125 21.648438 -23.84375 20.140625 -23.84375 C 19.367188 -23.84375 18.34375 -23.34375 17.0625 -22.34375 L 17.0625 -0.40625 C 17.0625 0.0507812 15.109375 0.28125 11.203125 0.28125 C 7.296875 0.28125 5.34375 0.0234375 5.34375 -0.484375 L 5.34375 -22.890625 L 3.625 -22.890625 C 2.125 -22.890625 1.375 -24.460938 1.375 -27.609375 C 1.375 -29.023438 1.644531 -30.460938 2.1875 -31.921875 C 2.914062 -33.929688 4.101562 -34.9375 5.75 -34.9375 C 7.394531 -34.9375 8.984375 -34.503906 10.515625 -33.640625 C 12.046875 -32.773438 12.972656 -31.953125 13.296875 -31.171875 C 16.128906 -33.679688 19.269531 -34.9375 22.71875 -34.9375 C 26.164062 -34.9375 28.9375 -33.863281 31.03125 -31.71875 C 33.5 -33.863281 36.46875 -34.9375 39.9375 -34.9375 C 47.476562 -34.9375 51.25 -30.347656 51.25 -21.171875 L 51.25 -0.34375 C 51.25 -0.0195312 49.296875 0.140625 45.390625 0.140625 C 41.484375 0.140625 39.53125 -0.0664062 39.53125 -0.484375 L 39.53125 -20.421875 C 39.53125 -22.703125 38.773438 -23.84375 37.265625 -23.84375 C 36.453125 -23.84375 35.40625 -23.34375 34.125 -22.34375 Z M 34.125 -0.34375 "/></g></g></g></svg>