<svg xmlns="http://www.w3.org/2000/svg" xmlns:xlink="http://www.w3.org/1999/xlink" width="500" zoomAndPan="magnify" viewBox="0 0 375 374.999991" height="500" preserveAspectRatio="xMidYMid meet" version="1.0"><defs><clipPath id="5b95a0615c"><path d="M 77 150 L 278 150 L 278 263 L 77 263 Z M 77 150 " clip-rule="nonzero"/></clipPath><clipPath id="5c85e77010"><path d="M 69.046875 217.226562 L 266.039062 142.328125 L 286.296875 195.609375 L 89.304688 270.507812 Z M 69.046875 217.226562 " clip-rule="nonzero"/></clipPath><clipPath id="3f306c5339"><path d="M 69.046875 217.226562 L 266.039062 142.328125 L 286.296875 195.609375 L 89.304688 270.507812 Z M 69.046875 217.226562 " clip-rule="nonzero"/></clipPath><clipPath id="6651f9d000"><path d="M 39 10 L 336 10 L 336 169 L 39 169 Z M 39 10 " clip-rule="nonzero"/></clipPath><clipPath id="9469093122"><path d="M 28.710938 111.136719 L 320.34375 0.257812 L 346.195312 68.257812 L 54.5625 179.140625 Z M 28.710938 111.136719 " clip-rule="nonzero"/></clipPath><clipPath id="8717f0b24c"><path d="M 28.710938 111.136719 L 320.34375 0.257812 L 346.195312 68.257812 L 54.5625 179.140625 Z M 28.710938 111.136719 " clip-rule="nonzero"/></clipPath><clipPath id="4ec51f4a62"><path d="M 311.820312 81.320312 L 88.917969 166.070312 C 70.175781 173.195312 49.199219 163.75 42.058594 144.976562 C 34.921875 126.199219 44.324219 105.203125 63.066406 98.074219 L 285.972656 13.324219 C 304.714844 6.199219 325.695312 15.644531 332.835938 34.421875 C 339.964844 53.199219 330.5625 74.195312 311.820312 81.320312 Z M 311.820312 81.320312 " clip-rule="nonzero"/></clipPath><linearGradient x1="-25.373065" gradientTransform="matrix(0.615291, -0.233938, 0.2344, 0.616508, 29.132866, 110.977687)" y1="55.146999" x2="497.944334" gradientUnits="userSpaceOnUse" y2="55.146999" id="e34ff9f5a3"><stop stop-opacity="1" stop-color="rgb(100%, 34.098816%, 34.098816%)" offset="0"/><stop stop-opacity="1" stop-color="rgb(100%, 33.982849%, 33.982849%)" offset="0.0625"/><stop stop-opacity="1" stop-color="rgb(100%, 33.738708%, 33.738708%)" offset="0.078125"/><stop stop-opacity="1" stop-color="rgb(100%, 33.480835%, 33.480835%)" offset="0.09375"/><stop stop-opacity="1" stop-color="rgb(100%, 33.222961%, 33.222961%)" offset="0.109375"/><stop stop-opacity="1" stop-color="rgb(100%, 32.965088%, 32.965088%)" offset="0.125"/><stop stop-opacity="1" stop-color="rgb(100%, 32.707214%, 32.707214%)" offset="0.140625"/><stop stop-opacity="1" stop-color="rgb(100%, 32.449341%, 32.449341%)" offset="0.15625"/><stop stop-opacity="1" stop-color="rgb(100%, 32.191467%, 32.191467%)" offset="0.171875"/><stop stop-opacity="1" stop-color="rgb(100%, 31.933594%, 31.933594%)" offset="0.1875"/><stop stop-opacity="1" stop-color="rgb(100%, 31.67572%, 31.67572%)" offset="0.203125"/><stop stop-opacity="1" stop-color="rgb(100%, 31.417847%, 31.417847%)" offset="0.21875"/><stop stop-opacity="1" stop-color="rgb(100%, 31.159973%, 31.159973%)" offset="0.234375"/><stop stop-opacity="1" stop-color="rgb(100%, 30.9021%, 30.9021%)" offset="0.25"/><stop stop-opacity="1" stop-color="rgb(100%, 30.644226%, 30.644226%)" offset="0.265625"/><stop stop-opacity="1" stop-color="rgb(100%, 30.386353%, 30.386353%)" offset="0.28125"/><stop stop-opacity="1" stop-color="rgb(100%, 30.128479%, 30.128479%)" offset="0.296875"/><stop stop-opacity="1" stop-color="rgb(100%, 29.870605%, 29.870605%)" offset="0.3125"/><stop stop-opacity="1" stop-color="rgb(100%, 29.612732%, 29.612732%)" offset="0.328125"/><stop stop-opacity="1" stop-color="rgb(100%, 29.354858%, 29.354858%)" offset="0.34375"/><stop stop-opacity="1" stop-color="rgb(100%, 29.096985%, 29.096985%)" offset="0.359375"/><stop stop-opacity="1" stop-color="rgb(100%, 28.840637%, 28.840637%)" offset="0.375"/><stop stop-opacity="1" stop-color="rgb(100%, 28.582764%, 28.582764%)" offset="0.390625"/><stop stop-opacity="1" stop-color="rgb(100%, 28.32489%, 28.32489%)" offset="0.40625"/><stop stop-opacity="1" stop-color="rgb(100%, 28.067017%, 28.067017%)" offset="0.421875"/><stop stop-opacity="1" stop-color="rgb(100%, 27.809143%, 27.809143%)" offset="0.4375"/><stop stop-opacity="1" stop-color="rgb(100%, 27.55127%, 27.55127%)" offset="0.453125"/><stop stop-opacity="1" stop-color="rgb(100%, 27.293396%, 27.293396%)" offset="0.46875"/><stop stop-opacity="1" stop-color="rgb(100%, 27.035522%, 27.035522%)" offset="0.484375"/><stop stop-opacity="1" stop-color="rgb(100%, 26.777649%, 26.777649%)" offset="0.5"/><stop stop-opacity="1" stop-color="rgb(100%, 26.519775%, 26.519775%)" offset="0.515625"/><stop stop-opacity="1" stop-color="rgb(100%, 26.261902%, 26.261902%)" offset="0.53125"/><stop stop-opacity="1" stop-color="rgb(100%, 26.004028%, 26.004028%)" offset="0.546875"/><stop stop-opacity="1" stop-color="rgb(100%, 25.746155%, 25.746155%)" offset="0.5625"/><stop stop-opacity="1" stop-color="rgb(100%, 25.488281%, 25.488281%)" offset="0.578125"/><stop stop-opacity="1" stop-color="rgb(100%, 25.230408%, 25.230408%)" offset="0.59375"/><stop stop-opacity="1" stop-color="rgb(100%, 24.972534%, 24.972534%)" offset="0.609375"/><stop stop-opacity="1" stop-color="rgb(100%, 24.714661%, 24.714661%)" offset="0.625"/><stop stop-opacity="1" stop-color="rgb(100%, 24.456787%, 24.456787%)" offset="0.640625"/><stop stop-opacity="1" stop-color="rgb(100%, 24.198914%, 24.198914%)" offset="0.65625"/><stop stop-opacity="1" stop-color="rgb(100%, 23.94104%, 23.94104%)" offset="0.671875"/><stop stop-opacity="1" stop-color="rgb(100%, 23.683167%, 23.683167%)" offset="0.6875"/><stop stop-opacity="1" stop-color="rgb(100%, 23.425293%, 23.425293%)" offset="0.703125"/><stop stop-opacity="1" stop-color="rgb(100%, 23.167419%, 23.167419%)" offset="0.71875"/><stop stop-opacity="1" stop-color="rgb(100%, 22.909546%, 22.909546%)" offset="0.734375"/><stop stop-opacity="1" stop-color="rgb(100%, 22.651672%, 22.651672%)" offset="0.75"/><stop stop-opacity="1" stop-color="rgb(100%, 22.393799%, 22.393799%)" offset="0.765625"/><stop stop-opacity="1" stop-color="rgb(100%, 22.137451%, 22.137451%)" offset="0.78125"/><stop stop-opacity="1" stop-color="rgb(100%, 21.879578%, 21.879578%)" offset="0.796875"/><stop stop-opacity="1" stop-color="rgb(100%, 21.621704%, 21.621704%)" offset="0.8125"/><stop stop-opacity="1" stop-color="rgb(100%, 21.363831%, 21.363831%)" offset="0.828125"/><stop stop-opacity="1" stop-color="rgb(100%, 21.105957%, 21.105957%)" offset="0.84375"/><stop stop-opacity="1" stop-color="rgb(100%, 20.848083%, 20.848083%)" offset="0.859375"/><stop stop-opacity="1" stop-color="rgb(100%, 20.59021%, 20.59021%)" offset="0.875"/><stop stop-opacity="1" stop-color="rgb(100%, 20.332336%, 20.332336%)" offset="0.890625"/><stop stop-opacity="1" stop-color="rgb(100%, 20.074463%, 20.074463%)" offset="0.90625"/><stop stop-opacity="1" stop-color="rgb(100%, 19.816589%, 19.816589%)" offset="0.921875"/><stop stop-opacity="1" stop-color="rgb(100%, 19.558716%, 19.558716%)" offset="0.9375"/><stop stop-opacity="1" stop-color="rgb(100%, 19.314575%, 19.314575%)" offset="1"/></linearGradient><clipPath id="9aba549fe7"><path d="M 114 294 L 185 294 L 185 365 L 114 365 Z M 114 294 " clip-rule="nonzero"/></clipPath><clipPath id="7de3e54d39"><path d="M 103.902344 308.90625 L 169.800781 283.851562 L 194.855469 349.746094 L 128.957031 374.800781 Z M 103.902344 308.90625 " clip-rule="nonzero"/></clipPath><clipPath id="7f4af165e7"><path d="M 103.902344 308.90625 L 169.800781 283.851562 L 194.855469 349.746094 L 128.957031 374.800781 Z M 103.902344 308.90625 " clip-rule="nonzero"/></clipPath></defs><g clip-path="url(#5b95a0615c)"><g clip-path="url(#5c85e77010)"><g clip-path="url(#3f306c5339)"><path fill="#ff914d" d="M 95.941406 207 L 239.140625 152.558594 C 240.015625 152.222656 240.902344 151.933594 241.804688 151.691406 C 242.710938 151.445312 243.621094 151.242188 244.546875 151.085938 C 245.46875 150.929688 246.394531 150.820312 247.328125 150.753906 C 248.261719 150.691406 249.195312 150.671875 250.132812 150.699219 C 251.066406 150.722656 252 150.796875 252.925781 150.914062 C 253.855469 151.03125 254.773438 151.195312 255.6875 151.402344 C 256.597656 151.613281 257.496094 151.863281 258.382812 152.160156 C 259.269531 152.457031 260.140625 152.796875 260.996094 153.175781 C 261.847656 153.558594 262.679688 153.980469 263.492188 154.445312 C 264.300781 154.910156 265.089844 155.410156 265.851562 155.953125 C 266.613281 156.492188 267.347656 157.070312 268.050781 157.679688 C 268.757812 158.292969 269.429688 158.941406 270.070312 159.617188 C 270.710938 160.296875 271.316406 161.003906 271.890625 161.742188 C 272.460938 162.480469 272.996094 163.246094 273.492188 164.039062 C 273.988281 164.828125 274.441406 165.640625 274.859375 166.476562 C 275.273438 167.3125 275.648438 168.167969 275.980469 169.039062 C 276.3125 169.910156 276.601562 170.796875 276.84375 171.699219 C 277.089844 172.601562 277.289062 173.511719 277.441406 174.429688 C 277.597656 175.351562 277.707031 176.277344 277.769531 177.210938 C 277.832031 178.140625 277.851562 179.074219 277.824219 180.007812 C 277.792969 180.941406 277.71875 181.871094 277.601562 182.796875 C 277.480469 183.722656 277.316406 184.640625 277.105469 185.550781 C 276.894531 186.460938 276.640625 187.359375 276.339844 188.246094 C 276.042969 189.128906 275.703125 190 275.316406 190.851562 C 274.933594 191.703125 274.507812 192.535156 274.042969 193.34375 C 273.578125 194.15625 273.074219 194.941406 272.53125 195.703125 C 271.984375 196.464844 271.40625 197.195312 270.792969 197.902344 C 270.175781 198.605469 269.527344 199.277344 268.847656 199.921875 C 268.164062 200.5625 267.453125 201.167969 266.714844 201.738281 C 265.972656 202.3125 265.207031 202.84375 264.414062 203.339844 C 263.617188 203.835938 262.804688 204.292969 261.964844 204.710938 C 261.125 205.128906 260.269531 205.5 259.394531 205.835938 L 116.199219 260.277344 C 115.324219 260.613281 114.433594 260.902344 113.53125 261.144531 C 112.628906 261.390625 111.714844 261.59375 110.792969 261.75 C 109.871094 261.90625 108.941406 262.015625 108.007812 262.082031 C 107.074219 262.144531 106.140625 262.164062 105.203125 262.136719 C 104.269531 262.113281 103.339844 262.039062 102.410156 261.921875 C 101.480469 261.804688 100.5625 261.640625 99.652344 261.433594 C 98.738281 261.222656 97.839844 260.972656 96.953125 260.675781 C 96.066406 260.378906 95.195312 260.039062 94.34375 259.660156 C 93.488281 259.277344 92.65625 258.855469 91.847656 258.390625 C 91.035156 257.925781 90.25 257.425781 89.488281 256.882812 C 88.726562 256.34375 87.992188 255.765625 87.285156 255.15625 C 86.582031 254.542969 85.90625 253.894531 85.265625 253.21875 C 84.625 252.539062 84.019531 251.832031 83.449219 251.09375 C 82.875 250.355469 82.34375 249.589844 81.847656 248.796875 C 81.351562 248.007812 80.894531 247.195312 80.480469 246.359375 C 80.0625 245.523438 79.6875 244.667969 79.359375 243.796875 C 79.027344 242.925781 78.738281 242.039062 78.492188 241.136719 C 78.25 240.234375 78.050781 239.324219 77.894531 238.40625 C 77.742188 237.484375 77.632812 236.558594 77.566406 235.625 C 77.503906 234.695312 77.488281 233.761719 77.515625 232.828125 C 77.542969 231.894531 77.617188 230.964844 77.738281 230.039062 C 77.855469 229.113281 78.023438 228.195312 78.234375 227.285156 C 78.441406 226.375 78.695312 225.476562 78.996094 224.589844 C 79.292969 223.707031 79.636719 222.835938 80.019531 221.984375 C 80.402344 221.132812 80.828125 220.300781 81.292969 219.492188 C 81.761719 218.679688 82.265625 217.894531 82.808594 217.132812 C 83.351562 216.371094 83.929688 215.640625 84.546875 214.933594 C 85.160156 214.230469 85.808594 213.558594 86.492188 212.914062 C 87.171875 212.273438 87.882812 211.667969 88.625 211.097656 C 89.363281 210.523438 90.132812 209.992188 90.925781 209.496094 C 91.71875 209 92.535156 208.542969 93.371094 208.125 C 94.210938 207.707031 95.066406 207.332031 95.941406 207 Z M 95.941406 207 " fill-opacity="1" fill-rule="nonzero"/></g></g></g><g clip-path="url(#6651f9d000)"><g clip-path="url(#9469093122)"><g clip-path="url(#8717f0b24c)"><g clip-path="url(#4ec51f4a62)"><path fill="url(#e34ff9f5a3)" d="M -20.554688 27.289062 L 73.449219 274.527344 L 395.441406 152.105469 L 301.4375 -95.132812 Z M -20.554688 27.289062 " fill-rule="nonzero"/></g></g></g></g><g clip-path="url(#9aba549fe7)"><g clip-path="url(#7de3e54d39)"><g clip-path="url(#7f4af165e7)"><path fill="#ffde59" d="M 182.328125 316.796875 C 182.738281 317.878906 183.09375 318.972656 183.394531 320.089844 C 183.699219 321.203125 183.945312 322.328125 184.136719 323.46875 C 184.328125 324.605469 184.464844 325.75 184.542969 326.902344 C 184.625 328.054688 184.648438 329.207031 184.613281 330.363281 C 184.578125 331.515625 184.488281 332.664062 184.339844 333.808594 C 184.195312 334.957031 183.992188 336.089844 183.734375 337.214844 C 183.476562 338.339844 183.164062 339.449219 182.796875 340.546875 C 182.425781 341.640625 182.007812 342.714844 181.535156 343.765625 C 181.0625 344.820312 180.539062 345.847656 179.964844 346.847656 C 179.390625 347.851562 178.769531 348.820312 178.097656 349.761719 C 177.429688 350.703125 176.714844 351.609375 175.957031 352.480469 C 175.199219 353.351562 174.402344 354.179688 173.5625 354.972656 C 172.71875 355.765625 171.84375 356.515625 170.929688 357.21875 C 170.015625 357.925781 169.070312 358.585938 168.09375 359.199219 C 167.113281 359.8125 166.109375 360.375 165.074219 360.886719 C 164.039062 361.402344 162.984375 361.863281 161.90625 362.273438 C 160.824219 362.683594 159.730469 363.042969 158.617188 363.34375 C 157.5 363.648438 156.375 363.894531 155.238281 364.085938 C 154.097656 364.277344 152.953125 364.414062 151.800781 364.492188 C 150.648438 364.570312 149.496094 364.59375 148.34375 364.5625 C 147.1875 364.527344 146.039062 364.4375 144.894531 364.289062 C 143.75 364.144531 142.613281 363.941406 141.488281 363.683594 C 140.363281 363.421875 139.253906 363.109375 138.160156 362.742188 C 137.066406 362.375 135.992188 361.957031 134.9375 361.484375 C 133.882812 361.011719 132.855469 360.488281 131.855469 359.914062 C 130.855469 359.339844 129.882812 358.71875 128.941406 358.046875 C 128 357.378906 127.09375 356.664062 126.226562 355.90625 C 125.355469 355.148438 124.523438 354.347656 123.730469 353.507812 C 122.9375 352.667969 122.191406 351.792969 121.484375 350.878906 C 120.777344 349.964844 120.117188 349.019531 119.507812 348.039062 C 118.894531 347.0625 118.328125 346.054688 117.816406 345.023438 C 117.300781 343.988281 116.839844 342.933594 116.429688 341.855469 C 116.019531 340.773438 115.664062 339.679688 115.359375 338.5625 C 115.058594 337.449219 114.808594 336.324219 114.617188 335.183594 C 114.425781 334.046875 114.289062 332.902344 114.210938 331.75 C 114.132812 330.597656 114.109375 329.445312 114.144531 328.289062 C 114.175781 327.136719 114.265625 325.988281 114.414062 324.84375 C 114.5625 323.695312 114.765625 322.5625 115.023438 321.4375 C 115.28125 320.3125 115.59375 319.203125 115.960938 318.109375 C 116.328125 317.011719 116.75 315.9375 117.222656 314.886719 C 117.695312 313.832031 118.21875 312.804688 118.792969 311.804688 C 119.367188 310.800781 119.988281 309.832031 120.65625 308.890625 C 121.324219 307.949219 122.039062 307.042969 122.796875 306.171875 C 123.554688 305.300781 124.355469 304.472656 125.195312 303.679688 C 126.035156 302.886719 126.910156 302.136719 127.824219 301.433594 C 128.738281 300.726562 129.683594 300.066406 130.664062 299.453125 C 131.640625 298.839844 132.648438 298.277344 133.679688 297.765625 C 134.714844 297.25 135.769531 296.789062 136.851562 296.378906 C 137.929688 295.96875 139.027344 295.609375 140.140625 295.308594 C 141.253906 295.003906 142.378906 294.757812 143.519531 294.566406 C 144.65625 294.375 145.804688 294.238281 146.953125 294.160156 C 148.105469 294.082031 149.257812 294.058594 150.414062 294.089844 C 151.566406 294.125 152.714844 294.214844 153.863281 294.363281 C 155.007812 294.507812 156.140625 294.710938 157.265625 294.96875 C 158.390625 295.230469 159.503906 295.542969 160.597656 295.910156 C 161.691406 296.277344 162.765625 296.695312 163.816406 297.167969 C 164.871094 297.640625 165.898438 298.164062 166.902344 298.738281 C 167.902344 299.3125 168.875 299.933594 169.8125 300.605469 C 170.753906 301.273438 171.660156 301.988281 172.53125 302.746094 C 173.402344 303.503906 174.234375 304.304688 175.023438 305.144531 C 175.816406 305.984375 176.566406 306.859375 177.273438 307.773438 C 177.976562 308.6875 178.636719 309.632812 179.25 310.613281 C 179.863281 311.589844 180.425781 312.597656 180.941406 313.628906 C 181.453125 314.664062 181.917969 315.71875 182.328125 316.796875 Z M 182.328125 316.796875 " fill-opacity="1" fill-rule="nonzero"/></g></g></g></svg>